<svg viewBox="0 0 1400 440" width="1400" height="440" xmlns="http://www.w3.org/2000/svg">
    <defs>


      <!-- Soft node glow: large blur halo -->
      <filter id="nodeHalo" x="-200%" y="-200%" width="600%" height="600%">
        <feGaussianBlur stdDeviation="15.6" result="halo"/>
        <feMerge>
          <feMergeNode in="halo"/>
          <feMergeNode in="SourceGraphic"/>
        </feMerge>
      </filter>

      <!-- Tighter node ring glow -->
      <filter id="nodeRing" x="-100%" y="-100%" width="400%" height="400%">
        <feGaussianBlur stdDeviation="5.2" result="blur"/>
        <feMerge>
          <feMergeNode in="blur"/>
          <feMergeNode in="SourceGraphic"/>
        </feMerge>
      </filter>

      <!-- Pulse glow on moving dots -->
      <filter id="pulseGlow" x="-150%" y="-150%" width="500%" height="500%">
        <feGaussianBlur stdDeviation="5.2" result="blur"/>
        <feMerge>
          <feMergeNode in="blur"/>
          <feMergeNode in="SourceGraphic"/>
        </feMerge>
      </filter>

      <!-- Motion paths for pulses -->
      <path id="p1"  d="M 30,40  L 160,20  L 300,60  L 440,30  L 580,50"/>
      <path id="p2"  d="M 580,50 L 720,25  L 870,45  L 1010,25 L 1160,55 L 1300,30 L 1380,70"/>
      <path id="p3"  d="M 1380,70 L 1300,30 L 1010,130 L 870,230 L 720,280 L 580,310"/>
      <path id="p4"  d="M 100,130 L 230,160 L 370,200 L 510,240 L 650,155 L 760,135 L 870,230"/>
      <path id="p5"  d="M 870,230 L 1010,290 L 1160,175 L 1300,250 L 1380,210 L 1380,340 L 1300,420"/>
      <path id="p6"  d="M 30,260 L 140,300 L 290,370 L 370,320 L 580,310 L 720,400 L 870,380"/>
      <path id="p7"  d="M 870,380 L 1010,420 L 1160,370 L 1300,420 L 1380,340 L 1380,470"/>
      <path id="p8"  d="M 30,370 L 160,430 L 290,370 L 440,430 L 580,460 L 720,420"/>
      <path id="p9"  d="M 720,420 L 870,440 L 1010,420 L 1160,460 L 1300,420"/>
      <path id="p10" d="M 440,430 L 580,460 L 720,420 L 870,440 L 1010,420"/>
      <path id="p11" d="M 160,20  L 100,130 L 230,260 L 140,300 L 30,370"/>
      <path id="p12" d="M 300,60  L 230,160 L 230,260 L 290,370 L 290,470"/>
      <path id="p13" d="M 580,50  L 650,155 L 580,310 L 440,430 L 440,490"/>
      <path id="p14" d="M 760,135 L 720,280 L 720,400 L 720,490"/>
      <path id="p15" d="M 1010,25 L 1010,130 L 1010,290 L 1010,420"/>
      <path id="p16" d="M 1300,250 L 1160,370 L 1010,420 L 870,380 L 720,400 L 580,310 L 510,240 L 370,320 L 230,260 L 100,130"/>
    </defs>



    <!-- ─── BASE EDGES ─── -->
    <g stroke="#5B9CF5" stroke-width="0.8" fill="none" opacity="0.29">
      <!-- top band -->
      <line x1="30"   y1="40"  x2="160"  y2="20"/>
      <line x1="30"   y1="40"  x2="100"  y2="130"/>
      <line x1="160"  y1="20"  x2="300"  y2="60"/>
      <line x1="160"  y1="20"  x2="100"  y2="130"/>
      <line x1="300"  y1="60"  x2="440"  y2="30"/>
      <line x1="300"  y1="60"  x2="230"  y2="160"/>
      <line x1="440"  y1="30"  x2="580"  y2="50"/>
      <line x1="440"  y1="30"  x2="370"  y2="200" stroke-dasharray="3,12"/>
      <line x1="580"  y1="50"  x2="720"  y2="25"/>
      <line x1="580"  y1="50"  x2="650"  y2="155"/>
      <line x1="720"  y1="25"  x2="870"  y2="45"/>
      <line x1="720"  y1="25"  x2="760"  y2="135"/>
      <line x1="870"  y1="45"  x2="760"  y2="135"/>
      <line x1="870"  y1="45"  x2="1010" y2="25"/>
      <line x1="1010" y1="25"  x2="1160" y2="55"/>
      <line x1="1010" y1="25"  x2="1010" y2="130"/>
      <line x1="1160" y1="55"  x2="1010" y2="130"/>
      <line x1="1160" y1="55"  x2="1300" y2="30"/>
      <line x1="1300" y1="30"  x2="1380" y2="70"/>
      <line x1="1010" y1="130" x2="1160" y2="175"/>
      <line x1="1300" y1="30"  x2="1160" y2="175"/>
      <line x1="1380" y1="70"  x2="1160" y2="175"/>
      <!-- mid band -->
      <line x1="100"  y1="130" x2="230"  y2="160"/>
      <line x1="100"  y1="130" x2="230"  y2="260"/>
      <line x1="230"  y1="160" x2="370"  y2="200"/>
      <line x1="370"  y1="200" x2="510"  y2="240"/>
      <line x1="510"  y1="240" x2="650"  y2="155"/>
      <line x1="650"  y1="155" x2="760"  y2="135"/>
      <line x1="760"  y1="135" x2="870"  y2="230"/>
      <line x1="870"  y1="230" x2="1010" y2="130"/>
      <line x1="870"  y1="230" x2="1010" y2="290"/>
      <line x1="1010" y1="290" x2="1160" y2="175"/>
      <line x1="1010" y1="290" x2="1300" y2="250"/>
      <line x1="1160" y1="175" x2="1300" y2="250"/>
      <line x1="1300" y1="250" x2="1380" y2="210"/>
      <line x1="1380" y1="210" x2="1380" y2="340"/>
      <line x1="1380" y1="340" x2="1300" y2="420"/>
      <line x1="1300" y1="250" x2="1300" y2="420"/>
      <!-- left mid -->
      <line x1="30"   y1="260" x2="140"  y2="300"/>
      <line x1="140"  y1="300" x2="230"  y2="260"/>
      <line x1="230"  y1="260" x2="370"  y2="200"/>
      <line x1="230"  y1="260" x2="290"  y2="370"/>
      <line x1="370"  y1="200" x2="510"  y2="240"/>
      <line x1="370"  y1="320" x2="510"  y2="240"/>
      <line x1="370"  y1="320" x2="290"  y2="370"/>
      <line x1="290"  y1="370" x2="140"  y2="300"/>
      <line x1="580"  y1="310" x2="650"  y2="155"/>
      <line x1="580"  y1="310" x2="510"  y2="240"/>
      <line x1="580"  y1="310" x2="720"  y2="280"/>
      <line x1="720"  y1="280" x2="760"  y2="135"/>
      <line x1="720"  y1="280" x2="870"  y2="230"/>
      <!-- bottom band -->
      <line x1="30"   y1="370" x2="140"  y2="300"/>
      <line x1="30"   y1="370" x2="160"  y2="430"/>
      <line x1="140"  y1="300" x2="290"  y2="370"/>
      <line x1="160"  y1="430" x2="290"  y2="370"/>
      <line x1="290"  y1="370" x2="440"  y2="430"/>
      <line x1="370"  y1="320" x2="580"  y2="310"/>
      <line x1="440"  y1="430" x2="580"  y2="310"/>
      <line x1="440"  y1="430" x2="580"  y2="460"/>
      <line x1="580"  y1="460" x2="720"  y2="400"/>
      <line x1="720"  y1="400" x2="720"  y2="280"/>
      <line x1="720"  y1="400" x2="870"  y2="380"/>
      <line x1="870"  y1="380" x2="870"  y2="230"/>
      <line x1="870"  y1="380" x2="1010" y2="420"/>
      <line x1="1010" y1="420" x2="1010" y2="290"/>
      <line x1="1010" y1="420" x2="1160" y2="370"/>
      <line x1="1160" y1="370" x2="1160" y2="175"/>
      <line x1="1160" y1="370" x2="1300" y2="420"/>
      <line x1="1300" y1="420" x2="1380" y2="340"/>
      <!-- very bottom -->
      <line x1="160"  y1="430" x2="290"  y2="470"/>
      <line x1="290"  y1="470" x2="440"  y2="490"/>
      <line x1="440"  y1="490" x2="580"  y2="460"/>
      <line x1="580"  y1="460" x2="720"  y2="490"/>
      <line x1="720"  y1="490" x2="870"  y2="440"/>
      <line x1="870"  y1="440" x2="870"  y2="380"/>
      <line x1="870"  y1="440" x2="1010" y2="490"/>
      <line x1="1010" y1="490" x2="1160" y2="460"/>
      <line x1="1160" y1="460" x2="1300" y2="420"/>
      <line x1="1160" y1="460" x2="1380" y2="470"/>

      <!-- Added edges (+30%) -->
      <line x1="190" y1="95" x2="160" y2="20"/>
      <line x1="190" y1="95" x2="300" y2="60"/>
      <line x1="190" y1="95" x2="100" y2="130"/>
      <line x1="520" y1="105" x2="440" y2="30"/>
      <line x1="520" y1="105" x2="580" y2="50"/>
      <line x1="520" y1="105" x2="510" y2="240"/>
      <line x1="940" y1="95" x2="870" y2="45"/>
      <line x1="940" y1="95" x2="1010" y2="130"/>
      <line x1="1230" y1="120" x2="1160" y2="55"/>
      <line x1="1230" y1="120" x2="1300" y2="250"/>
      <line x1="175" y1="195" x2="100" y2="130"/>
      <line x1="175" y1="195" x2="230" y2="260"/>
      <line x1="430" y1="195" x2="370" y2="200"/>
      <line x1="430" y1="195" x2="510" y2="240"/>
      <line x1="690" y1="215" x2="650" y2="155"/>
      <line x1="690" y1="215" x2="720" y2="280"/>
      <line x1="950" y1="205" x2="870" y2="230"/>
      <line x1="950" y1="205" x2="1010" y2="290"/>
      <line x1="1120" y1="320" x2="1010" y2="290"/>
      <line x1="1120" y1="320" x2="1160" y2="370"/>
      <line x1="60" y1="195" x2="30" y2="260"/>
      <line x1="60" y1="195" x2="100" y2="130"/>
      <line x1="215" y1="395" x2="140" y2="300"/>
      <line x1="215" y1="395" x2="290" y2="370"/>
      <line x1="490" y1="385" x2="440" y2="430"/>
      <line x1="490" y1="385" x2="580" y2="310"/>
      <line x1="800" y1="345" x2="720" y2="280"/>
      <line x1="800" y1="345" x2="870" y2="380"/>
      <line x1="1075" y1="455" x2="1010" y2="420"/>
      <line x1="1075" y1="455" x2="1160" y2="460"/>
      <line x1="350" y1="450" x2="290" y2="470"/>
      <line x1="350" y1="450" x2="440" y2="430"/>
      <line x1="230" y1="160" x2="100" y2="130"/>
      <line x1="230" y1="160" x2="370" y2="200"/>
      <line x1="510" y1="240" x2="580" y2="310"/>
      <line x1="1300" y1="250" x2="1160" y2="175"/>
      <line x1="870" y1="440" x2="1010" y2="490"/>
      <line x1="580" y1="460" x2="580" y2="310"/>
      <line x1="720" y1="490" x2="720" y2="400"/>
      <line x1="160" y1="430" x2="140" y2="300"/>
      <line x1="580" y1="50" x2="440" y2="30"/>
      <line x1="1010" y1="420" x2="1160" y2="370"/>

      <!-- Bulk added edges -->
      <line x1="75" y1="25" x2="160" y2="20"/>
      <line x1="75" y1="25" x2="30" y2="40"/>
      <line x1="245" y1="15" x2="160" y2="20"/>
      <line x1="245" y1="15" x2="300" y2="60"/>
      <line x1="380" y1="55" x2="300" y2="60"/>
      <line x1="380" y1="55" x2="440" y2="30"/>
      <line x1="505" y1="30" x2="440" y2="30"/>
      <line x1="505" y1="30" x2="580" y2="50"/>
      <line x1="640" y1="20" x2="580" y2="50"/>
      <line x1="640" y1="20" x2="720" y2="25"/>
      <line x1="795" y1="55" x2="720" y2="25"/>
      <line x1="795" y1="55" x2="870" y2="45"/>
      <line x1="935" y1="20" x2="870" y2="45"/>
      <line x1="935" y1="20" x2="1010" y2="25"/>
      <line x1="1080" y1="35" x2="1010" y2="25"/>
      <line x1="1080" y1="35" x2="1160" y2="55"/>
      <line x1="1195" y1="65" x2="1160" y2="55"/>
      <line x1="1195" y1="65" x2="1300" y2="30"/>
      <line x1="1340" y1="55" x2="1300" y2="30"/>
      <line x1="1340" y1="55" x2="1380" y2="70"/>
      <line x1="55" y1="95" x2="30" y2="40"/>
      <line x1="55" y1="95" x2="100" y2="130"/>
      <line x1="145" y1="75" x2="160" y2="20"/>
      <line x1="145" y1="75" x2="100" y2="130"/>
      <line x1="310" y1="120" x2="300" y2="60"/>
      <line x1="310" y1="120" x2="230" y2="160"/>
      <line x1="475" y1="110" x2="440" y2="30"/>
      <line x1="475" y1="110" x2="510" y2="240"/>
      <line x1="600" y1="105" x2="580" y2="50"/>
      <line x1="600" y1="105" x2="650" y2="155"/>
      <line x1="700" y1="80" x2="720" y2="25"/>
      <line x1="700" y1="80" x2="760" y2="135"/>
      <line x1="825" y1="110" x2="870" y2="45"/>
      <line x1="825" y1="110" x2="760" y2="135"/>
      <line x1="960" y1="155" x2="1010" y2="130"/>
      <line x1="960" y1="155" x2="870" y2="230"/>
      <line x1="1095" y1="105" x2="1010" y2="25"/>
      <line x1="1095" y1="105" x2="1160" y2="175"/>
      <line x1="1265" y1="165" x2="1160" y2="175"/>
      <line x1="1265" y1="165" x2="1300" y2="250"/>
      <line x1="1355" y1="150" x2="1380" y2="70"/>
      <line x1="1355" y1="150" x2="1300" y2="250"/>
      <line x1="165" y1="175" x2="100" y2="130"/>
      <line x1="165" y1="175" x2="230" y2="260"/>
      <line x1="310" y1="185" x2="230" y2="160"/>
      <line x1="310" y1="185" x2="370" y2="200"/>
      <line x1="450" y1="160" x2="370" y2="200"/>
      <line x1="450" y1="160" x2="510" y2="240"/>
      <line x1="555" y1="195" x2="510" y2="240"/>
      <line x1="555" y1="195" x2="580" y2="310"/>
      <line x1="685" y1="170" x2="650" y2="155"/>
      <line x1="685" y1="170" x2="720" y2="280"/>
      <line x1="830" y1="165" x2="760" y2="135"/>
      <line x1="830" y1="165" x2="870" y2="230"/>
      <line x1="975" y1="175" x2="1010" y2="130"/>
      <line x1="975" y1="175" x2="870" y2="230"/>
      <line x1="1055" y1="225" x2="1010" y2="290"/>
      <line x1="1055" y1="225" x2="1160" y2="175"/>
      <line x1="1205" y1="225" x2="1160" y2="175"/>
      <line x1="1205" y1="225" x2="1300" y2="250"/>
      <line x1="1345" y1="200" x2="1300" y2="250"/>
      <line x1="1345" y1="200" x2="1380" y2="210"/>
      <line x1="70" y1="230" x2="30" y2="260"/>
      <line x1="70" y1="230" x2="100" y2="130"/>
      <line x1="185" y1="235" x2="140" y2="300"/>
      <line x1="185" y1="235" x2="230" y2="260"/>
      <line x1="330" y1="300" x2="290" y2="370"/>
      <line x1="330" y1="300" x2="370" y2="200"/>
      <line x1="415" y1="270" x2="370" y2="320"/>
      <line x1="415" y1="270" x2="510" y2="240"/>
      <line x1="545" y1="280" x2="580" y2="310"/>
      <line x1="545" y1="280" x2="510" y2="240"/>
      <line x1="660" y1="295" x2="580" y2="310"/>
      <line x1="660" y1="295" x2="720" y2="280"/>
      <line x1="775" y1="310" x2="720" y2="280"/>
      <line x1="775" y1="310" x2="870" y2="380"/>
      <line x1="905" y1="305" x2="870" y2="230"/>
      <line x1="905" y1="305" x2="1010" y2="290"/>
      <line x1="1040" y1="360" x2="1010" y2="290"/>
      <line x1="1040" y1="360" x2="1160" y2="370"/>
      <line x1="1175" y1="315" x2="1160" y2="175"/>
      <line x1="1175" y1="315" x2="1300" y2="250"/>
      <line x1="1310" y1="340" x2="1300" y2="420"/>
      <line x1="1310" y1="340" x2="1380" y2="340"/>
      <line x1="110" y1="355" x2="30" y2="370"/>
      <line x1="110" y1="355" x2="140" y2="300"/>
      <line x1="255" y1="340" x2="230" y2="260"/>
      <line x1="255" y1="340" x2="290" y2="370"/>
      <line x1="395" y1="355" x2="370" y2="320"/>
      <line x1="395" y1="355" x2="440" y2="430"/>
      <line x1="525" y1="345" x2="440" y2="430"/>
      <line x1="525" y1="345" x2="580" y2="310"/>
      <line x1="645" y1="365" x2="580" y2="310"/>
      <line x1="645" y1="365" x2="720" y2="400"/>
      <line x1="760" y1="365" x2="720" y2="280"/>
      <line x1="760" y1="365" x2="870" y2="380"/>
      <line x1="885" y1="420" x2="870" y2="380"/>
      <line x1="885" y1="420" x2="1010" y2="420"/>
      <line x1="1000" y1="380" x2="1010" y2="290"/>
      <line x1="1000" y1="380" x2="870" y2="380"/>
      <line x1="1130" y1="400" x2="1160" y2="370"/>
      <line x1="1130" y1="400" x2="1010" y2="420"/>
      <line x1="1255" y1="390" x2="1300" y2="420"/>
      <line x1="1255" y1="390" x2="1160" y2="370"/>
      <line x1="1365" y1="415" x2="1380" y2="340"/>
      <line x1="1365" y1="415" x2="1300" y2="420"/>
      <line x1="55" y1="420" x2="30" y2="370"/>
      <line x1="55" y1="420" x2="160" y2="430"/>
      <line x1="200" y1="415" x2="160" y2="430"/>
      <line x1="200" y1="415" x2="290" y2="370"/>
      <line x1="335" y1="415" x2="290" y2="470"/>
      <line x1="335" y1="415" x2="440" y2="430"/>
      <line x1="470" y1="415" x2="440" y2="430"/>
      <line x1="470" y1="415" x2="580" y2="460"/>
      <line x1="605" y1="420" x2="580" y2="460"/>
      <line x1="605" y1="420" x2="720" y2="400"/>
      <line x1="755" y1="435" x2="720" y2="490"/>
      <line x1="755" y1="435" x2="870" y2="440"/>
      <line x1="905" y1="465" x2="870" y2="440"/>
      <line x1="905" y1="465" x2="1010" y2="490"/>
      <line x1="1055" y1="450" x2="1010" y2="490"/>
      <line x1="1055" y1="450" x2="1160" y2="460"/>
      <line x1="1195" y1="445" x2="1160" y2="460"/>
      <line x1="1195" y1="445" x2="1300" y2="420"/>
      <line x1="1340" y1="445" x2="1300" y2="420"/>
      <line x1="1340" y1="445" x2="1380" y2="470"/>
      <line x1="130" y1="490" x2="160" y2="430"/>
      <line x1="130" y1="490" x2="30" y2="370"/>
      <line x1="270" y1="490" x2="290" y2="470"/>
      <line x1="270" y1="490" x2="160" y2="430"/>
      <line x1="410" y1="490" x2="440" y2="490"/>
      <line x1="410" y1="490" x2="290" y2="470"/>
      <line x1="550" y1="490" x2="580" y2="460"/>
      <line x1="550" y1="490" x2="440" y2="490"/>
      <line x1="680" y1="490" x2="720" y2="490"/>
      <line x1="680" y1="490" x2="580" y2="460"/>
      <line x1="815" y1="490" x2="870" y2="440"/>
      <line x1="815" y1="490" x2="720" y2="490"/>
      <line x1="955" y1="490" x2="1010" y2="490"/>
      <line x1="955" y1="490" x2="870" y2="440"/>
      <line x1="1095" y1="490" x2="1160" y2="460"/>
      <line x1="1095" y1="490" x2="1010" y2="490"/>
      <line x1="1230" y1="490" x2="1300" y2="420"/>
      <line x1="1230" y1="490" x2="1160" y2="460"/>

      <!-- Pulse path segments (missing edges) -->
      <line x1="1300" y1="30" x2="1010" y2="130"/>
      <line x1="580" y1="310" x2="720" y2="400"/>
      <line x1="1380" y1="340" x2="1380" y2="470"/>
      <line x1="580" y1="460" x2="720" y2="420"/>
      <line x1="720" y1="420" x2="870" y2="440"/>
      <line x1="870" y1="440" x2="1010" y2="420"/>
      <line x1="1010" y1="420" x2="1160" y2="460"/>
      <line x1="230" y1="160" x2="230" y2="260"/>
      <line x1="290" y1="370" x2="290" y2="470"/>
      <line x1="440" y1="430" x2="440" y2="490"/>
      <line x1="1010" y1="130" x2="1010" y2="290"/>
      <line x1="1300" y1="250" x2="1160" y2="370"/>
      <line x1="370" y1="320" x2="230" y2="260"/>

      <!-- New left hub edges -->
      <line x1="230" y1="260" x2="100" y2="130"/>
      <line x1="230" y1="260" x2="160" y2="20"/>
      <line x1="230" y1="260" x2="300" y2="60"/>
      <line x1="230" y1="260" x2="370" y2="200"/>
      <line x1="230" y1="260" x2="140" y2="300"/>
      <line x1="230" y1="260" x2="290" y2="370"/>
      <line x1="230" y1="260" x2="510" y2="240"/>
      <line x1="230" y1="260" x2="580" y2="310"/>
      <!-- long dashed cross-links -->
      <line x1="160"  y1="20"  x2="580"  y2="50"  stroke-dasharray="3,16" stroke="#5B9CF5"/>
      <line x1="720"  y1="25"  x2="1300" y2="30"  stroke-dasharray="3,16" stroke="#5B9CF5"/>
      <line x1="370"  y1="320" x2="720"  y2="280" stroke-dasharray="3,14" stroke="#5B9CF5"/>
      <line x1="440"  y1="430" x2="720"  y2="400" stroke-dasharray="3,14" stroke="#5B9CF5"/>
      <line x1="870"  y1="380" x2="1160" y2="370" stroke-dasharray="3,14" stroke="#5B9CF5"/>
    </g>

    <!-- ─── NODE HALOS (soft glow behind each vertex) ─── -->
    <!-- Hub halos — largest, brightest -->
    <g filter="url(#nodeHalo)" opacity="0.94">
      <circle cx="720"  cy="280" r="5.6" fill="#5B9CF5"/>
      <circle cx="230"  cy="260" r="5.6" fill="#5B9CF5"/>
      <circle cx="580"  cy="310" r="6" fill="#5B9CF5"/>
      <circle cx="870"  cy="230" r="6" fill="#5B9CF5"/>
      <circle cx="720"  cy="25"  r="5" fill="#5B9CF5"/>
      <circle cx="870"  cy="380" r="5" fill="#5B9CF5"/>
      <circle cx="1010" cy="290" r="5" fill="#5B9CF5"/>
    </g>
    <!-- Mid halos -->
    <g filter="url(#nodeHalo)" opacity="0.47">
      <circle cx="300"  cy="60"  r="4" fill="#5B9CF5"/>
      <circle cx="440"  cy="30"  r="4" fill="#5B9CF5"/>
      <circle cx="580"  cy="50"  r="4" fill="#5B9CF5"/>
      <circle cx="650"  cy="155" r="4" fill="#5B9CF5"/>
      <circle cx="760"  cy="135" r="4" fill="#5B9CF5"/>
      <circle cx="1010" cy="130" r="4" fill="#5B9CF5"/>
      <circle cx="1160" cy="175" r="4" fill="#5B9CF5"/>
      <circle cx="370"  cy="200" r="4" fill="#5B9CF5"/>
      <circle cx="510"  cy="240" r="4" fill="#5B9CF5"/>
      <circle cx="720"  cy="400" r="4" fill="#5B9CF5"/>
      <circle cx="1010" cy="420" r="4" fill="#5B9CF5"/>
      <circle cx="870"  cy="440" r="4" fill="#5B9CF5"/>
      <circle cx="1160" cy="370" r="4" fill="#5B9CF5"/>
      <circle cx="1300" cy="250" r="4" fill="#5B9CF5"/>
    </g>

    <!-- ─── NODE RINGS (visible geometry) ─── -->
    <!-- Hub nodes -->
    <g filter="url(#nodeRing)">
      <circle cx="720"  cy="280" r="6.4"  fill="none" stroke="#5B9CF5" stroke-width="1.8"/>
      <circle cx="720"  cy="280" r="12" fill="none" stroke="#5B9CF5" opacity="0.45" stroke-width="0.5"/>
      <circle cx="230"  cy="260" r="6.4"  fill="none" stroke="#5B9CF5" stroke-width="1.8"/>
      <circle cx="230"  cy="260" r="12" fill="none" stroke="#5B9CF5" opacity="0.45" stroke-width="0.5"/>
      <circle cx="580"  cy="310" r="7"  fill="none" stroke="#5B9CF5" stroke-width="1.5"/>
      <circle cx="580"  cy="310" r="13" fill="none" stroke="#5B9CF5" opacity="0.39" stroke-width="0.4"/>
      <circle cx="870"  cy="230" r="7"  fill="none" stroke="#5B9CF5" stroke-width="1.5"/>
      <circle cx="870"  cy="230" r="13" fill="none" stroke="#5B9CF5" opacity="0.39" stroke-width="0.4"/>
    </g>
    <!-- Hub center dots -->
    <g fill="#5B9CF5">
      <circle cx="720"  cy="280" r="2"/>
      <circle cx="230"  cy="260" r="2"/>
      <circle cx="580"  cy="310" r="2"/>
      <circle cx="870"  cy="230" r="2"/>
    </g>

    <!-- Mid nodes -->
    <g fill="none" stroke="#5B9CF5" opacity="0.65" stroke-width="1.1">
      <circle cx="160"  cy="20"  r="4"/>
      <circle cx="440"  cy="30"  r="4"/>
      <circle cx="720"  cy="25"  r="4.5"/>
      <circle cx="1010" cy="25"  r="4"/>
      <circle cx="1300" cy="30"  r="4"/>
      <circle cx="100"  cy="130" r="3.5"/>
      <circle cx="300"  cy="60"  r="3.5"/>
      <circle cx="370"  cy="200" r="4"/>
      <circle cx="650"  cy="155" r="4.5"/>
      <circle cx="760"  cy="135" r="4.5"/>
      <circle cx="1010" cy="130" r="4"/>
      <circle cx="1380" cy="70"  r="3.5"/>
      <circle cx="230"  cy="260" r="3.5"/>
      <circle cx="510"  cy="240" r="4"/>
      <circle cx="1010" cy="290" r="4.5"/>
      <circle cx="1160" cy="175" r="4"/>
      <circle cx="140"  cy="300" r="3.5"/>
      <circle cx="370"  cy="320" r="4"/>
      <circle cx="1300" cy="250" r="4"/>
      <circle cx="1380" cy="210" r="3.5"/>
      <circle cx="290"  cy="370" r="3.5"/>
      <circle cx="720"  cy="400" r="4.5"/>
      <circle cx="870"  cy="380" r="4.5"/>
      <circle cx="1010" cy="420" r="4"/>
      <circle cx="1160" cy="370" r="4"/>
      <circle cx="1380" cy="340" r="3.5"/>
      <circle cx="440"  cy="430" r="3.5"/>
      <circle cx="1300" cy="420" r="4"/>
      <circle cx="580"  cy="460" r="4"/>
      <circle cx="870"  cy="440" r="4"/>
      <circle cx="1010" cy="490" r="4"/>
      <circle cx="1160" cy="460" r="4"/>

      <!-- Added nodes (+30%) -->
      <circle cx="190" cy="95" r="3.5"/>
      <circle cx="520" cy="105" r="3.5"/>
      <circle cx="940" cy="95" r="3.5"/>
      <circle cx="1230" cy="120" r="3.5"/>
      <circle cx="175" cy="195" r="3.5"/>
      <circle cx="430" cy="195" r="3.5"/>
      <circle cx="690" cy="215" r="3.5"/>
      <circle cx="950" cy="205" r="3.5"/>
      <circle cx="1120" cy="320" r="3.5"/>
      <circle cx="60" cy="195" r="3.5"/>
      <circle cx="215" cy="395" r="3.5"/>
      <circle cx="490" cy="385" r="3.5"/>
      <circle cx="800" cy="345" r="3.5"/>
      <circle cx="1075" cy="455" r="3.5"/>
      <circle cx="350" cy="450" r="3.5"/>

      <!-- Bulk added nodes -->
      <circle cx="75" cy="25" r="3"/>
      <circle cx="245" cy="15" r="3"/>
      <circle cx="380" cy="55" r="3"/>
      <circle cx="505" cy="30" r="3"/>
      <circle cx="640" cy="20" r="3"/>
      <circle cx="795" cy="55" r="3"/>
      <circle cx="935" cy="20" r="3"/>
      <circle cx="1080" cy="35" r="3"/>
      <circle cx="1195" cy="65" r="3"/>
      <circle cx="1340" cy="55" r="3"/>
      <circle cx="55" cy="95" r="3"/>
      <circle cx="145" cy="75" r="3"/>
      <circle cx="310" cy="120" r="3"/>
      <circle cx="475" cy="110" r="3"/>
      <circle cx="600" cy="105" r="3"/>
      <circle cx="700" cy="80" r="3"/>
      <circle cx="825" cy="110" r="3"/>
      <circle cx="960" cy="155" r="3"/>
      <circle cx="1095" cy="105" r="3"/>
      <circle cx="1265" cy="165" r="3"/>
      <circle cx="1355" cy="150" r="3"/>
      <circle cx="165" cy="175" r="3"/>
      <circle cx="310" cy="185" r="3"/>
      <circle cx="450" cy="160" r="3"/>
      <circle cx="555" cy="195" r="3"/>
      <circle cx="685" cy="170" r="3"/>
      <circle cx="830" cy="165" r="3"/>
      <circle cx="975" cy="175" r="3"/>
      <circle cx="1055" cy="225" r="3"/>
      <circle cx="1205" cy="225" r="3"/>
      <circle cx="1345" cy="200" r="3"/>
      <circle cx="70" cy="230" r="3"/>
      <circle cx="185" cy="235" r="3"/>
      <circle cx="330" cy="300" r="3"/>
      <circle cx="415" cy="270" r="3"/>
      <circle cx="545" cy="280" r="3"/>
      <circle cx="660" cy="295" r="3"/>
      <circle cx="775" cy="310" r="3"/>
      <circle cx="905" cy="305" r="3"/>
      <circle cx="1040" cy="360" r="3"/>
      <circle cx="1175" cy="315" r="3"/>
      <circle cx="1310" cy="340" r="3"/>
      <circle cx="110" cy="355" r="3"/>
      <circle cx="255" cy="340" r="3"/>
      <circle cx="395" cy="355" r="3"/>
      <circle cx="525" cy="345" r="3"/>
      <circle cx="645" cy="365" r="3"/>
      <circle cx="760" cy="365" r="3"/>
      <circle cx="885" cy="420" r="3"/>
      <circle cx="1000" cy="380" r="3"/>
      <circle cx="1130" cy="400" r="3"/>
      <circle cx="1255" cy="390" r="3"/>
      <circle cx="1365" cy="415" r="3"/>
      <circle cx="55" cy="420" r="3"/>
      <circle cx="200" cy="415" r="3"/>
      <circle cx="335" cy="415" r="3"/>
      <circle cx="470" cy="415" r="3"/>
      <circle cx="605" cy="420" r="3"/>
      <circle cx="755" cy="435" r="3"/>
      <circle cx="905" cy="465" r="3"/>
      <circle cx="1055" cy="450" r="3"/>
      <circle cx="1195" cy="445" r="3"/>
      <circle cx="1340" cy="445" r="3"/>
      <circle cx="130" cy="490" r="3"/>
      <circle cx="270" cy="490" r="3"/>
      <circle cx="410" cy="490" r="3"/>
      <circle cx="550" cy="490" r="3"/>
      <circle cx="680" cy="490" r="3"/>
      <circle cx="815" cy="490" r="3"/>
      <circle cx="955" cy="490" r="3"/>
      <circle cx="1095" cy="490" r="3"/>
      <circle cx="1230" cy="490" r="3"/>
    </g>
    <!-- Mid inner dots -->
    <g fill="#5B9CF5" opacity="0.78">
      <circle cx="720"  cy="25"  r="1.5"/>
      <circle cx="650"  cy="155" r="1.5"/>
      <circle cx="760"  cy="135" r="1.5"/>
      <circle cx="870"  cy="380" r="1.5"/>
      <circle cx="720"  cy="400" r="1.5"/>
      <circle cx="370"  cy="200" r="1.5"/>
      <circle cx="510"  cy="240" r="1.5"/>
      <circle cx="1010" cy="290" r="1.5"/>
    </g>

    <!-- Small peripheral nodes -->
    <g fill="none" stroke="#5B9CF5" opacity="0.33" stroke-width="0.8">
      <circle cx="30"   cy="40"  r="2.5"/>
      <circle cx="580"  cy="50"  r="2.5"/>
      <circle cx="870"  cy="45"  r="2.5"/>
      <circle cx="1160" cy="55"  r="2.5"/>
      <circle cx="1380" cy="70"  r="2.5"/>
      <circle cx="30"   cy="260" r="2.5"/>
      <circle cx="230"  cy="160" r="2.5"/>
      <circle cx="160"  cy="430" r="2.5"/>
      <circle cx="30"   cy="370" r="2.5"/>
      <circle cx="290"  cy="470" r="2.5"/>
      <circle cx="440"  cy="490" r="2.5"/>
      <circle cx="720"  cy="490" r="2.5"/>
      <circle cx="1380" cy="470" r="2.5"/>
    </g>

    <!-- ─── ANIMATED PULSES ─── -->
    <!-- All durations ÷ 0.3 (×3.33) from originals: 2.2→7.3, 2.4→8, etc. -->
    <g filter="url(#pulseGlow)">
      <circle r="2.5" fill="#5B9CF5" opacity="1.0">
        <animateMotion dur="9.3s" repeatCount="indefinite" begin="0s" calcMode="spline" keyTimes="0;1" keySplines="0.4 0 0.6 1"><mpath href="#p1"/></animateMotion>
        <animate attributeName="opacity" values="0;0.9;0.9;0" keyTimes="0;0.08;0.88;1" dur="9.3s" repeatCount="indefinite" begin="0s"/>
      </circle>
      <circle r="2" fill="#5B9CF5" opacity="1.0">
        <animateMotion dur="10.7s" repeatCount="indefinite" begin="4.7s" calcMode="spline" keyTimes="0;1" keySplines="0.4 0 0.6 1"><mpath href="#p2"/></animateMotion>
        <animate attributeName="opacity" values="0;0.8;0.8;0" keyTimes="0;0.08;0.88;1" dur="10.7s" repeatCount="indefinite" begin="4.7s"/>
      </circle>
      <circle r="2.5" fill="#5B9CF5" opacity="1.0">
        <animateMotion dur="8.0s" repeatCount="indefinite" begin="2.0s" calcMode="spline" keyTimes="0;1" keySplines="0.4 0 0.6 1"><mpath href="#p3"/></animateMotion>
        <animate attributeName="opacity" values="0;0.9;0.9;0" keyTimes="0;0.08;0.88;1" dur="8.0s" repeatCount="indefinite" begin="2.0s"/>
      </circle>
      <circle r="2" fill="#5B9CF5" opacity="1.0">
        <animateMotion dur="12.0s" repeatCount="indefinite" begin="6.6s" calcMode="spline" keyTimes="0;1" keySplines="0.4 0 0.6 1"><mpath href="#p4"/></animateMotion>
        <animate attributeName="opacity" values="0;0.85;0.85;0" keyTimes="0;0.08;0.88;1" dur="12.0s" repeatCount="indefinite" begin="6.6s"/>
      </circle>
      <circle r="3" fill="#5B9CF5" opacity="0.91">
        <animateMotion dur="13.3s" repeatCount="indefinite" begin="2.7s" calcMode="spline" keyTimes="0;1" keySplines="0.4 0 0.6 1"><mpath href="#p5"/></animateMotion>
        <animate attributeName="opacity" values="0;0.7;0.7;0" keyTimes="0;0.08;0.88;1" dur="13.3s" repeatCount="indefinite" begin="2.7s"/>
      </circle>
      <circle r="2" fill="#5B9CF5" opacity="1.0">
        <animateMotion dur="8.7s" repeatCount="indefinite" begin="10s" calcMode="spline" keyTimes="0;1" keySplines="0.4 0 0.6 1"><mpath href="#p6"/></animateMotion>
        <animate attributeName="opacity" values="0;0.9;0.9;0" keyTimes="0;0.08;0.88;1" dur="8.7s" repeatCount="indefinite" begin="10s"/>
      </circle>
      <circle r="2.5" fill="#5B9CF5" opacity="1.0">
        <animateMotion dur="10.0s" repeatCount="indefinite" begin="3.3s" calcMode="spline" keyTimes="0;1" keySplines="0.4 0 0.6 1"><mpath href="#p7"/></animateMotion>
        <animate attributeName="opacity" values="0;0.85;0.85;0" keyTimes="0;0.08;0.88;1" dur="10.0s" repeatCount="indefinite" begin="3.3s"/>
      </circle>
      <circle r="2" fill="#5B9CF5" opacity="1.0">
        <animateMotion dur="12.7s" repeatCount="indefinite" begin="8.3s" calcMode="spline" keyTimes="0;1" keySplines="0.4 0 0.6 1"><mpath href="#p8"/></animateMotion>
        <animate attributeName="opacity" values="0;0.8;0.8;0" keyTimes="0;0.08;0.88;1" dur="12.7s" repeatCount="indefinite" begin="8.3s"/>
      </circle>
      <circle r="2.5" fill="#5B9CF5" opacity="1.0">
        <animateMotion dur="7.3s" repeatCount="indefinite" begin="6.0s" calcMode="spline" keyTimes="0;1" keySplines="0.4 0 0.6 1"><mpath href="#p9"/></animateMotion>
        <animate attributeName="opacity" values="0;0.9;0.9;0" keyTimes="0;0.08;0.88;1" dur="7.3s" repeatCount="indefinite" begin="6.0s"/>
      </circle>
      <circle r="2" fill="#5B9CF5" opacity="1.0">
        <animateMotion dur="11.3s" repeatCount="indefinite" begin="1.0s" calcMode="spline" keyTimes="0;1" keySplines="0.4 0 0.6 1"><mpath href="#p10"/></animateMotion>
        <animate attributeName="opacity" values="0;0.85;0.85;0" keyTimes="0;0.08;0.88;1" dur="11.3s" repeatCount="indefinite" begin="1.0s"/>
      </circle>
      <circle r="2.5" fill="#5B9CF5" opacity="1.0">
        <animateMotion dur="9.7s" repeatCount="indefinite" begin="13.3s" calcMode="spline" keyTimes="0;1" keySplines="0.4 0 0.6 1"><mpath href="#p11"/></animateMotion>
        <animate attributeName="opacity" values="0;0.9;0.9;0" keyTimes="0;0.08;0.88;1" dur="9.7s" repeatCount="indefinite" begin="13.3s"/>
      </circle>
      <circle r="2" fill="#5B9CF5" opacity="1.0">
        <animateMotion dur="10.3s" repeatCount="indefinite" begin="7.3s" calcMode="spline" keyTimes="0;1" keySplines="0.4 0 0.6 1"><mpath href="#p12"/></animateMotion>
        <animate attributeName="opacity" values="0;0.8;0.8;0" keyTimes="0;0.08;0.88;1" dur="10.3s" repeatCount="indefinite" begin="7.3s"/>
      </circle>
      <circle r="3" fill="#5B9CF5" opacity="0.91">
        <animateMotion dur="14.0s" repeatCount="indefinite" begin="5.0s" calcMode="spline" keyTimes="0;1" keySplines="0.4 0 0.6 1"><mpath href="#p13"/></animateMotion>
        <animate attributeName="opacity" values="0;0.7;0.7;0" keyTimes="0;0.08;0.88;1" dur="14.0s" repeatCount="indefinite" begin="5.0s"/>
      </circle>
      <circle r="2" fill="#5B9CF5" opacity="1.0">
        <animateMotion dur="9.0s" repeatCount="indefinite" begin="11.7s" calcMode="spline" keyTimes="0;1" keySplines="0.4 0 0.6 1"><mpath href="#p14"/></animateMotion>
        <animate attributeName="opacity" values="0;0.9;0.9;0" keyTimes="0;0.08;0.88;1" dur="9.0s" repeatCount="indefinite" begin="11.7s"/>
      </circle>
      <circle r="2.5" fill="#5B9CF5" opacity="1.0">
        <animateMotion dur="11.0s" repeatCount="indefinite" begin="3.0s" calcMode="spline" keyTimes="0;1" keySplines="0.4 0 0.6 1"><mpath href="#p15"/></animateMotion>
        <animate attributeName="opacity" values="0;0.85;0.85;0" keyTimes="0;0.08;0.88;1" dur="11.0s" repeatCount="indefinite" begin="3.0s"/>
      </circle>
      <circle r="2" fill="#5B9CF5" opacity="1.0">
        <animateMotion dur="8.3s" repeatCount="indefinite" begin="16.7s" calcMode="spline" keyTimes="0;1" keySplines="0.4 0 0.6 1"><mpath href="#p16"/></animateMotion>
        <animate attributeName="opacity" values="0;0.9;0.9;0" keyTimes="0;0.08;0.88;1" dur="8.3s" repeatCount="indefinite" begin="16.7s"/>
      </circle>
    </g>

  </svg>
